# xmcd
#
# Track frame offsets:
#   150
#   15065
#   29113
#   48159
#   63325
#   78733
#   96171
#   110605
#   129404
#   143858
#   160771
#   184417
#   201107
#   223596
#   233006
#   260868
#   277220
#
# Disc length: 3848 seconds
#
# Revision: 0
# Processed by: cddbd v1.5.2PL0 Copyright (c) Steve Scherf et al.
# Submitted via: uFREEDB ActiveX Control 1.5
#
DISCID=fa0f0611
DTITLE=AS MELHORES DOS RODEIOS - RODEIOS
DYEAR=1900
DGENRE=Country
TTITLE0=RODEIO EM VACARIA
TTITLE1=TO NO RODEIO
TTITLE2=SORTA CAVALO
TTITLE3=PALETEANDO
TTITLE4=DOMADOR
TTITLE5=UM BAGUAL CORCOVEADOR
TTITLE6=NAS ARMADAS DO LACO
TTITLE7=DE CAHO BATIDO
TTITLE8=GAUCHO CENTO POR CENTO
TTITLE9=TIMBRE DE GALO
TTITLE10=APAYSANADO
TTITLE11=GINETEANDO
TTITLE12=CAVALO CRIOULO
TTITLE13=FLOR DE RODEIO
TTITLE14=O CASAMENTO DA DORALICIA
TTITLE15=OS GINETES DO BRASIL
TTITLE16=NOSSA SENHORA SULINA
EXTD=
EXTT0=
EXTT1=
EXTT2=
EXTT3=
EXTT4=
EXTT5=
EXTT6=
EXTT7=
EXTT8=
EXTT9=
EXTT10=
EXTT11=
EXTT12=
EXTT13=
EXTT14=
EXTT15=
EXTT16=
PLAYORDER=
